<svg xmlns="http://www.w3.org/2000/svg" width="2560" height="279.07" viewBox="0 0 2560 279.07">
  <title>waves</title>
  <g id="Layer_2" data-name="Layer 2">
    <path d="M0,56.57S103-7.8,244-1.36,497,95.19,742,91.51s278-31.26,461-59.77S1556,6.91,1747,76.8s286,119.54,501,79.08,312-80,312-80V277.26H0Z" transform="translate(0 1.81)" fill="#4baee0" opacity="0.21"/>
  </g>
  <g id="Layer_6" data-name="Layer 6">
    <path d="M0,124.26s56,37,115,43,162.82-14,342-69,315.68-109.15,528-76,385,91,513,110,307,9,402-20,273.94-48.51,431.43-9.15S2560,173.34,2560,173.34V277.26H0Z" transform="translate(0 1.81)" fill="#4baee0" opacity="0.25"/>
  </g>
  <g id="Layer_4" data-name="Layer 4">
    <path d="M0,83.34S173.15,207.13,495.63,143s400.48,39.36,631.47,60.36,411-129,624-159,808.93,180,808.93,180v52.92H0Z" transform="translate(0 1.81)" fill="#4baee0" opacity="0.18"/>
  </g>
</svg>
