<svg xmlns="http://www.w3.org/2000/svg" width="1280" height="72">
  <g fill="none" fill-rule="evenodd">
    <path d="M0 71V4c0-2.21 1.792-4 4-4h1272c2.208 0 4 1.79 4 4v67H0z" fill="#DDD"></path>
    <path d="M18.0015 12.999c3.3125 0 5.9985 2.6875 5.9985 6 0 3.315-2.685 6-5.9985 6-3.315 0-6-2.686-6-6 0-3.3125 2.686-6 6-6z" fill="#FF3D4C"></path>
    <path d="M39 12.999c3.315 0 6 2.6875 6 6 0 3.315-2.685 6-6 6-3.314 0-6-2.686-6-6 0-3.3125 2.686-6 6-6z" fill="#FEAA3A"></path>
    <path d="M60.001 12.999c3.315 0 6 2.6875 6 6 0 3.315-2.686 6-6 6-3.315 0-6-2.686-6-6 0-3.3125 2.686-6 6-6z" fill="#6BBD2E"></path>
    <path d="M291 35h-10.405c-1.795 0-3.07-1.0525-3.53-2.2065-2.321-5.825-8.065-19.795-8.065-19.795C268.205 11.455 267.105 11 266 11H86.002c-1.105 0-2.205.455-3 1.999 0 0-5.7435 13.969-8.065 19.795-.46 1.1535-1.734 2.205-3.53 2.205H0v37h1280v-37H291V35z" fill="#EBEBEB"></path>
    <path d="M93 42h1152c1.1035 0 2 .895 2 2v19c0 1.104-.8965 2-2 2H93c-1.1035 0-2-.896-2-2V44c0-1.105.8965-2 2-2z" fill="#FFF"></path>
    <path d="M73.0275 52.9925v-.055l2.62-2.62C74.8385 49.51 73.737 49 72.5 49c-2.484 0-4.4985 2.015-4.4985 4.499 0 2.486 2.015 4.501 4.499 4.501 1.56 0 2.934-.795 3.74-2h1.3715l1.31 1.36C77.61 59.538 75.2295 61 72.501 61c-4.142 0-7.499-3.3585-7.499-7.501s3.357-7.5 7.5-7.5c2.0625 0 3.9165.845 5.27 2.195l2.168-2.169h.0885v6.967h-7l-.001.0005zM51.852 52.9165c-.0025-.006-.006-.01-.0085-.0165-.028-.056-.055-.113-.09-.166-.104-.174-.24-.325-.403-.4435l-4.732-4.732c-.586-.586-1.536-.586-2.122 0-.586.586-.586 1.536 0 2.12L46.8175 52H38.47c-.828 0-1.501.671-1.501 1.499 0 .828.6725 1.501 1.501 1.501h8.502l-2.5075 2.5065c-.585.586-.585 1.536 0 2.122.585.586 1.535.586 2.1215 0l4.95-4.95c.083-.0825.15-.173.21-.268.304-.446.3365-1.017.105-1.4935l.001-.0005zM1268.5 50h-10c-.8285 0-1.5-.673-1.5-1.501 0-.828.671-1.499 1.5-1.499h10c.8275 0 1.4985.671 1.4985 1.499 0 .828-.671 1.501-1.499 1.501h.0005zm0 5h-10c-.8285 0-1.5-.673-1.5-1.501 0-.828.671-1.499 1.5-1.499h10c.8275 0 1.4985.671 1.4985 1.499 0 .828-.671 1.501-1.4985 1.501zm0 5h-10c-.8285 0-1.5-.6725-1.5-1.5s.671-1.5 1.5-1.5h10c.8275 0 1.4985.6715 1.4985 1.5s-.671 1.5-1.499 1.5h.0005z" fill="#C5C5C5"></path>
    <path d="M1267.5808 14.5496l-1.9993 2.0084c-.584.585-1.5285.585-2.1125 0-.5825-.5865-.5825-1.535 0-2.12l2.0005-2.0099-2.4175-2.4291h6.9465v6.98l-2.4177-2.4294z" fill="#BCBCBC"></path>
    <path d="M22.501 52h-8.349l2.321-2.3215c.586-.584.586-1.534 0-2.12-.584-.586-1.534-.586-2.12 0L9.6205 52.291c-.1625.119-.2985.27-.4025.4435-.035.0525-.062.109-.09.165l-.0085.017c-.231.4765-.1985 1.0475.105 1.494.06.095.1275.185.21.268l4.95 4.95c.5865.586 1.535.586 2.121 0 .586-.586.586-1.536 0-2.122L13.998 55h8.503c.828 0 1.499-.673 1.499-1.501 0-.828-.671-1.499-1.499-1.499z" fill="#C5C5C5"></path>
    <path d="M1260.5507 21.5717l2.0093-2.0087h.0005c.585-.5865.585-1.5365 0-2.1215-.586-.586-1.536-.586-2.122 0l-2.009 2.009L1256 17.021v6.978h6.978l-2.4273-2.4273z" fill="#BCBCBC"></path>
  </g>
</svg>
